<svg id="Layer_1" data-name="Layer 1" xmlns="http://www.w3.org/2000/svg" viewBox="0 0 1668.49 346.78"><defs><style>.cls-1{fill:#abd0e7;}.cls-2{fill:#3488c8;}.cls-3{fill:#5c605f;}</style></defs><path class="cls-1" d="M40.05,261.19a37.12,37.12,0,1,1,0-74.23H254.82V261.2Z" transform="translate(-2.94 -5.26)"/><path class="cls-2" d="M166,277.81v37.12a37.12,37.12,0,0,1-74.24,0V277.81Z" transform="translate(-2.94 -5.26)"/><path class="cls-1" d="M180.58,79.5V42.38a37.12,37.12,0,0,1,74.24,0V79.5Z" transform="translate(-2.94 -5.26)"/><path class="cls-2" d="M91.76,96.11H306.51a37.12,37.12,0,1,1,0,74.24H91.76Z" transform="translate(-2.94 -5.26)"/><path class="cls-3" d="M385.12,171.71v-.23c0-22.6,17.44-41.53,42.11-41.53s41.88,18.7,41.88,41.3v.23c0,22.6-17.44,41.53-42.11,41.53S385.12,194.31,385.12,171.71Zm69.19,0v-.23c0-15.6-11.36-28.57-27.31-28.57s-27.08,12.74-27.08,28.34v.23c0,15.6,11.36,28.45,27.31,28.45S454.31,187.31,454.31,171.71Z" transform="translate(-2.94 -5.26)"/><path class="cls-3" d="M484.6,157.37a6.86,6.86,0,0,1,6.88-7,7,7,0,0,1,7,7v3.79c4.48-6.32,10.79-11.36,20.65-11.36,14.23,0,28.11,11.24,28.11,31.43v.23c0,20.08-13.77,31.44-28.11,31.44-10.09,0-16.4-5.05-20.65-10.67v21.45a6.94,6.94,0,0,1-13.88,0Zm48.53,24.09v-.23c0-11.7-7.92-19.39-17.32-19.39s-17.67,7.81-17.67,19.39v.23c0,11.59,8.26,19.39,17.67,19.39S533.13,193.39,533.13,181.46Z" transform="translate(-2.94 -5.26)"/><path class="cls-3" d="M589.35,213c-17.55,0-31.09-12.73-31.09-31.43v-.23c0-17.33,12.28-31.55,29.6-31.55,19.28,0,28.8,15.83,28.8,29.83a6.49,6.49,0,0,1-6.54,6.65h-38c1.49,9.87,8.49,15.38,17.44,15.38a21.78,21.78,0,0,0,14.34-5.28,5.15,5.15,0,0,1,3.56-1.26,5.46,5.46,0,0,1,5.51,5.62,6.06,6.06,0,0,1-1.84,4.24C605.64,209.92,598.76,213,589.35,213Zm13.77-35.91c-.92-8.95-6.2-15.94-15.37-15.94-8.49,0-14.46,6.53-15.72,15.94Z" transform="translate(-2.94 -5.26)"/><path class="cls-3" d="M630.89,157.37a6.86,6.86,0,0,1,6.88-7,7,7,0,0,1,7,7v3c3.9-5.62,9.52-10.55,18.93-10.55,13.65,0,21.57,9.18,21.57,23.17v32.36a6.76,6.76,0,0,1-6.88,6.88,6.86,6.86,0,0,1-7-6.88V177.22c0-9.41-4.71-14.8-13-14.8-8,0-13.65,5.62-13.65,15v27.88a6.94,6.94,0,0,1-13.88,0Z" transform="translate(-2.94 -5.26)"/><path class="cls-3" d="M757.79,144.4H738.28a6.54,6.54,0,1,1,0-13.07h53.35a6.54,6.54,0,0,1,0,13.07H772v60.81a7.11,7.11,0,0,1-14.22,0Z" transform="translate(-2.94 -5.26)"/><path class="cls-3" d="M793.7,194.2V194c0-13.08,10.21-19.51,25-19.51A50.6,50.6,0,0,1,835,177V175.5c0-8.61-5.28-13.2-15-13.2a36,36,0,0,0-13.42,2.41,7.77,7.77,0,0,1-2.18.35,5.78,5.78,0,0,1-5.85-5.74,6.07,6.07,0,0,1,3.78-5.51,52,52,0,0,1,19.51-3.55c9.06,0,15.83,2.41,20.08,6.76,4.47,4.36,6.54,10.79,6.54,18.71v29.83a6.62,6.62,0,0,1-6.77,6.65c-4,0-6.77-2.75-6.77-5.85v-2.3c-4.13,4.94-10.44,8.84-19.74,8.84C803.79,212.9,793.7,206.36,793.7,194.2Zm41.53-4.36v-4.13a38.43,38.43,0,0,0-13.77-2.41c-9,0-14.22,3.78-14.22,10.09v.23c0,5.86,5.16,9.18,11.81,9.18C828.23,202.8,835.23,197.52,835.23,189.84Z" transform="translate(-2.94 -5.26)"/><path class="cls-3" d="M865.07,157.37a6.86,6.86,0,0,1,6.88-7,7,7,0,0,1,7,7v6.19c3.21-7.57,9.18-13.3,15.26-13.3,4.36,0,6.88,2.86,6.88,6.88a6.51,6.51,0,0,1-5.51,6.65c-9.86,1.72-16.63,9.3-16.63,23.64v17.9a6.93,6.93,0,0,1-7,6.88,6.82,6.82,0,0,1-6.88-6.88Z" transform="translate(-2.94 -5.26)"/><path class="cls-3" d="M914.29,224.83a5.69,5.69,0,0,1-3.9-5.51,5.85,5.85,0,0,1,5.85-5.73,5.52,5.52,0,0,1,2.52.57A37,37,0,0,0,937.35,219c12.39,0,19.16-6.43,19.16-18.59v-4.7c-5,6.54-11.36,11.13-21.34,11.13-14.23,0-27.54-10.56-27.54-28.34v-.23c0-17.9,13.43-28.45,27.54-28.45,10.21,0,16.52,4.7,21.22,10.32v-2.87a6.95,6.95,0,0,1,13.89.12v41.88c0,10.21-2.64,17.78-7.69,22.83-5.51,5.5-14,8.14-24.9,8.14A52.26,52.26,0,0,1,914.29,224.83Zm42.33-46.46v-.23c0-9.87-8.14-16.64-17.78-16.64s-17.21,6.65-17.21,16.64v.23c0,9.86,7.69,16.63,17.21,16.63S956.62,188.23,956.62,178.37Z" transform="translate(-2.94 -5.26)"/><path class="cls-3" d="M1015.48,213c-17.55,0-31.09-12.73-31.09-31.43v-.23c0-17.33,12.28-31.55,29.6-31.55,19.28,0,28.8,15.83,28.8,29.83a6.49,6.49,0,0,1-6.54,6.65h-38c1.5,9.87,8.49,15.38,17.44,15.38a21.78,21.78,0,0,0,14.34-5.28,5.15,5.15,0,0,1,3.56-1.26,5.46,5.46,0,0,1,5.51,5.62,6.06,6.06,0,0,1-1.84,4.24C1031.78,209.92,1024.89,213,1015.48,213Zm13.77-35.91c-.92-8.95-6.19-15.94-15.37-15.94-8.49,0-14.46,6.53-15.72,15.94Z" transform="translate(-2.94 -5.26)"/><path class="cls-3" d="M1059.89,194.89V163h-2.3a6,6,0,0,1,0-11.93h2.3V140.73a6.94,6.94,0,0,1,13.88,0v10.33h10.9a6,6,0,1,1,0,11.93h-10.9v29.72c0,5.39,2.75,7.57,7.46,7.57a32.47,32.47,0,0,0,3.44-.35,5.85,5.85,0,0,1,5.85,5.74,6,6,0,0,1-3.67,5.39,27.42,27.42,0,0,1-9.52,1.61C1067.11,212.67,1059.89,208.19,1059.89,194.89Z" transform="translate(-2.94 -5.26)"/><path class="cls-3" d="M1101.88,205.56a5.34,5.34,0,0,1-2.64-4.82,5.56,5.56,0,0,1,5.62-5.62,6.08,6.08,0,0,1,3,.8c5.85,3.9,11.93,5.85,17.44,5.85,6,0,9.4-2.52,9.4-6.54V195c0-4.7-6.42-6.31-13.53-8.49-9-2.52-18.93-6.19-18.93-17.78v-.23c0-11.48,9.52-18.47,21.56-18.47a41.61,41.61,0,0,1,19,4.93,5.89,5.89,0,0,1,3.33,5.28,5.59,5.59,0,0,1-5.74,5.62,5.4,5.4,0,0,1-2.75-.69c-4.94-2.52-10-4.13-14.23-4.13-5.39,0-8.49,2.52-8.49,6v.23c0,4.47,6.54,6.31,13.65,8.6,8.84,2.75,18.82,6.77,18.82,17.67v.23c0,12.73-9.87,19-22.49,19A41.38,41.38,0,0,1,1101.88,205.56Z" transform="translate(-2.94 -5.26)"/><path class="cls-3" d="M1195.73,171.71v-.23c0-21.68,15.72-41.53,39.7-41.53,12,0,20,3.33,27.42,9a3,3,0,0,1-1.83,5.39,3.11,3.11,0,0,1-1.84-.8c-6.2-4.82-13-8.15-24.09-8.15-19.51,0-33.16,16.52-33.16,35.91v.23c0,20.77,13,36.26,34.42,36.26a41.25,41.25,0,0,0,25.58-9.18V175.5h-25a2.76,2.76,0,0,1,0-5.51h27.77a3,3,0,0,1,3,3v26.28a4.86,4.86,0,0,1-2.07,3.44A47.89,47.89,0,0,1,1236.12,213C1210.76,213,1195.73,194.31,1195.73,171.71Z" transform="translate(-2.94 -5.26)"/><path class="cls-3" d="M1312.65,213c-15.37,0-28.68-12.27-28.68-30.51v-.23c0-17,11.93-30.52,27.76-30.52,16.41,0,26.85,13.54,26.85,30.29a2.85,2.85,0,0,1-2.75,2.63h-45.9c1,14.58,11.48,23.07,23,23.07,8.38,0,14.23-3.45,18.93-8a2.5,2.5,0,0,1,1.84-.81,2.69,2.69,0,0,1,2.75,2.64,2.76,2.76,0,0,1-.92,2C1329.75,209.23,1323.21,213,1312.65,213Zm19.85-33.38c-.8-11.82-7.57-22.72-21-22.72-11.58,0-20.53,9.75-21.57,22.72Z" transform="translate(-2.94 -5.26)"/><path class="cls-3" d="M1355,155.53a2.81,2.81,0,1,1,5.62,0V164c3.9-6.88,10.44-12.27,21.11-12.27,14.8,0,23.41,10.09,23.41,24.09v33.39a2.69,2.69,0,0,1-2.76,2.87,2.77,2.77,0,0,1-2.86-2.87V176.87c0-12-6.77-20-18.59-20-11.47,0-20.31,8.72-20.31,20.88v31.44a2.68,2.68,0,0,1-2.75,2.87,2.77,2.77,0,0,1-2.87-2.87Z" transform="translate(-2.94 -5.26)"/><path class="cls-3" d="M1450,213c-15.37,0-28.68-12.27-28.68-30.51v-.23c0-17,11.93-30.52,27.76-30.52,16.41,0,26.85,13.54,26.85,30.29a2.85,2.85,0,0,1-2.75,2.63h-45.9c1,14.58,11.48,23.07,23,23.07,8.38,0,14.23-3.45,18.93-8a2.5,2.5,0,0,1,1.84-.81,2.69,2.69,0,0,1,2.75,2.64,2.76,2.76,0,0,1-.92,2C1467.08,209.23,1460.55,213,1450,213Zm19.85-33.38c-.8-11.82-7.57-22.72-21-22.72-11.59,0-20.53,9.75-21.57,22.72Z" transform="translate(-2.94 -5.26)"/><path class="cls-3" d="M1495.43,196.61V158.29h-6.31a2.75,2.75,0,0,1-2.64-2.64,2.65,2.65,0,0,1,2.64-2.53h6.31V136.83a2.75,2.75,0,0,1,2.75-2.87,2.84,2.84,0,0,1,2.87,2.87v16.29h18.36a2.75,2.75,0,0,1,2.63,2.64,2.65,2.65,0,0,1-2.63,2.53h-18.36V196c0,8.38,4.93,11.36,11.7,11.36,4,0,5.85-1.15,6.66-1.15a2.63,2.63,0,0,1,2.52,2.53,2.55,2.55,0,0,1-1.84,2.41,24.2,24.2,0,0,1-8.26,1.49C1502.77,212.67,1495.43,207.74,1495.43,196.61Z" transform="translate(-2.94 -5.26)"/><path class="cls-3" d="M1538.34,133.05a3.39,3.39,0,0,1,3.44-3.45,3.49,3.49,0,0,1,3.56,3.45V135a3.48,3.48,0,0,1-3.56,3.44,3.38,3.38,0,0,1-3.44-3.44Zm.69,22.48a2.81,2.81,0,1,1,5.62,0v53.7a2.68,2.68,0,0,1-2.75,2.87,2.77,2.77,0,0,1-2.87-2.87Z" transform="translate(-2.94 -5.26)"/><path class="cls-3" d="M1562.78,182.61v-.23c0-16.41,13.08-30.63,29.83-30.63,10.1,0,16.75,4.36,22,9.29a3.05,3.05,0,0,1,.8,2.07,2.84,2.84,0,0,1-2.87,2.86,2.93,2.93,0,0,1-2-.68c-4.7-4.48-10.21-8.27-18.13-8.27-13.31,0-23.63,11.13-23.63,25.13v.23c0,14.11,10.67,25.36,24.09,25.36,7.57,0,13.66-3.68,18.36-8.38a2.59,2.59,0,0,1,1.84-.92,3,3,0,0,1,2.75,2.76,2.53,2.53,0,0,1-.69,1.72c-5.85,6-12.62,10.09-22.6,10.09C1575.74,213,1562.78,199,1562.78,182.61Z" transform="translate(-2.94 -5.26)"/><path class="cls-3" d="M1628.52,205.21a3,3,0,0,1-1-2.18,2.79,2.79,0,0,1,2.75-2.75,3.22,3.22,0,0,1,1.84.57,32.84,32.84,0,0,0,19.5,6.66c7.92,0,14.12-4.36,14.12-11.13v-.23c0-6.89-7.35-9.41-15.49-11.7-9.53-2.76-20.08-5.63-20.08-16.07v-.23c0-9.4,7.92-16.17,19.27-16.17a39.88,39.88,0,0,1,18.93,5.27,3,3,0,0,1,1.5,2.53,2.8,2.8,0,0,1-2.76,2.75,2.92,2.92,0,0,1-1.6-.46,32.43,32.43,0,0,0-16.3-4.82c-8,0-13.3,4.36-13.3,10.22v.22c0,6.54,7.91,8.95,16.29,11.36,9.41,2.64,19.27,6.08,19.27,16.41v.23c0,10.44-9,17.09-20.19,17.09A40.19,40.19,0,0,1,1628.52,205.21Z" transform="translate(-2.94 -5.26)"/></svg>
