<?xml version="1.0" encoding="UTF-8" standalone="no"?>
<!DOCTYPE svg PUBLIC "-//W3C//DTD SVG 1.1//EN" "http://www.w3.org/Graphics/SVG/1.1/DTD/svg11.dtd">
<svg width="100%" height="100%" viewBox="0 0 1170 159" version="1.1" xmlns="http://www.w3.org/2000/svg" xmlns:xlink="http://www.w3.org/1999/xlink" xml:space="preserve" xmlns:serif="http://www.serif.com/" style="fill-rule:evenodd;clip-rule:evenodd;stroke-linejoin:round;stroke-miterlimit:2;">
    <g transform="matrix(1,0,0,1,-224.53,-127.05)">
        <path d="M480.06,198.44L480.06,198.28C480.06,182.71 492.08,169.66 509.07,169.66C526.06,169.66 537.93,182.55 537.93,198.12L537.93,198.28C537.93,213.85 525.91,226.9 508.92,226.9C491.93,226.9 480.06,214.01 480.06,198.44ZM527.73,198.45L527.73,198.28C527.73,187.53 519.9,178.6 508.91,178.6C497.92,178.6 490.25,187.38 490.25,198.13L490.25,198.29C490.25,209.04 498.08,217.9 509.07,217.9C520.06,217.9 527.73,209.2 527.73,198.45Z" style="fill:rgb(90,95,95);fill-rule:nonzero;"/>
    </g>
    <g transform="matrix(1,0,0,1,-224.53,-127.05)">
        <path d="M548.61,188.55C548.61,185.86 550.67,183.73 553.35,183.73C556.03,183.73 558.17,185.86 558.17,188.55L558.17,191.16C561.25,186.81 565.6,183.33 572.4,183.33C582.2,183.33 591.77,191.08 591.77,204.99L591.77,205.15C591.77,218.98 582.28,226.81 572.4,226.81C565.44,226.81 561.1,223.33 558.17,219.46L558.17,234.24C558.17,236.93 556.04,238.98 553.35,238.98C550.66,238.98 548.61,236.92 548.61,234.24L548.61,188.55ZM582.05,205.16L582.05,205C582.05,196.94 576.59,191.64 570.11,191.64C563.63,191.64 557.94,197.02 557.94,205L557.94,205.16C557.94,213.15 563.63,218.52 570.11,218.52C576.59,218.52 582.05,213.38 582.05,205.16Z" style="fill:rgb(90,95,95);fill-rule:nonzero;"/>
    </g>
    <g transform="matrix(1,0,0,1,-224.53,-127.05)">
        <path d="M620.79,226.9C608.69,226.9 599.37,218.13 599.37,205.24L599.37,205.08C599.37,193.14 607.83,183.34 619.77,183.34C633.05,183.34 639.61,194.25 639.61,203.89C639.61,206.58 637.55,208.47 635.1,208.47L608.93,208.47C609.96,215.27 614.78,219.06 620.95,219.06C624.98,219.06 628.14,217.64 630.83,215.42C631.54,214.87 632.17,214.55 633.28,214.55C635.41,214.55 637.07,216.21 637.07,218.42C637.07,219.61 636.52,220.63 635.81,221.35C632.02,224.75 627.27,226.88 620.79,226.88L620.79,226.9ZM630.28,202.15C629.65,195.98 626.01,191.16 619.69,191.16C613.84,191.16 609.73,195.67 608.86,202.15L630.28,202.15Z" style="fill:rgb(90,95,95);fill-rule:nonzero;"/>
    </g>
    <g transform="matrix(1,0,0,1,-224.53,-127.05)">
        <path d="M649.41,188.55C649.41,185.86 651.47,183.73 654.15,183.73C656.83,183.73 658.97,185.86 658.97,188.55L658.97,190.61C661.66,186.74 665.53,183.34 672.01,183.34C681.42,183.34 686.87,189.66 686.87,199.31L686.87,221.6C686.87,224.29 684.81,226.34 682.13,226.34C679.45,226.34 677.31,224.28 677.31,221.6L677.31,202.23C677.31,195.75 674.07,192.03 668.38,192.03C662.69,192.03 658.97,195.9 658.97,202.39L658.97,221.6C658.97,224.29 656.84,226.34 654.15,226.34C651.46,226.34 649.41,224.28 649.41,221.6L649.41,188.55Z" style="fill:rgb(90,95,95);fill-rule:nonzero;"/>
    </g>
    <g transform="matrix(1,0,0,1,-224.53,-127.05)">
        <path d="M736.85,179.62L723.41,179.62C720.88,179.62 718.9,177.56 718.9,175.11C718.9,172.66 720.88,170.6 723.41,170.6L760.17,170.6C762.62,170.6 764.6,172.66 764.6,175.11C764.6,177.56 762.62,179.62 760.17,179.62L746.65,179.62L746.65,221.52C746.65,224.21 744.44,226.34 741.75,226.34C739.06,226.34 736.85,224.21 736.85,221.52L736.85,179.62Z" style="fill:rgb(90,95,95);fill-rule:nonzero;"/>
    </g>
    <g transform="matrix(1,0,0,1,-224.53,-127.05)">
        <path d="M761.6,213.95L761.6,213.77C761.6,204.76 768.64,200.33 778.83,200.33C783.49,200.33 786.81,201.04 790.06,202.07L790.06,201.04C790.06,195.11 786.42,191.95 779.7,191.95C776.06,191.95 773.06,192.58 770.45,193.61C769.9,193.77 769.42,193.85 768.95,193.85C766.74,193.85 764.92,192.11 764.92,189.9C764.92,188.16 766.11,186.66 767.53,186.11C771.48,184.61 775.51,183.66 780.97,183.66C787.22,183.66 791.88,185.32 794.8,188.33C797.88,191.33 799.31,195.76 799.31,201.22L799.31,221.77C799.31,224.38 797.25,226.36 794.64,226.36C791.87,226.36 789.98,224.46 789.98,222.33L789.98,220.75C787.13,224.15 782.79,226.84 776.38,226.84C768.55,226.84 761.6,222.33 761.6,213.95ZM790.22,210.94L790.22,208.08C787.77,207.13 784.53,206.42 780.73,206.42C774.56,206.42 770.93,209.03 770.93,213.38L770.93,213.54C770.93,217.57 774.49,219.87 779.07,219.87C785.39,219.87 790.22,216.23 790.22,210.94Z" style="fill:rgb(90,95,95);fill-rule:nonzero;"/>
    </g>
    <g transform="matrix(1,0,0,1,-224.53,-127.05)">
        <path d="M810.78,188.55C810.78,185.86 812.84,183.73 815.52,183.73C818.2,183.73 820.34,185.86 820.34,188.55L820.34,192.82C822.55,187.6 826.66,183.65 830.85,183.65C833.85,183.65 835.59,185.63 835.59,188.39C835.59,190.92 833.93,192.58 831.8,192.97C825,194.16 820.34,199.37 820.34,209.26L820.34,221.59C820.34,224.2 818.21,226.33 815.52,226.33C812.83,226.33 810.78,224.27 810.78,221.59L810.78,188.54L810.78,188.55Z" style="fill:rgb(90,95,95);fill-rule:nonzero;"/>
    </g>
    <g transform="matrix(1,0,0,1,-224.53,-127.05)">
        <path d="M844.69,235.04C843.03,234.41 842,233.06 842,231.25C842,229.12 843.82,227.3 846.03,227.3C846.74,227.3 847.29,227.46 847.77,227.7C851.56,229.83 855.75,231.02 860.58,231.02C869.12,231.02 873.78,226.59 873.78,218.21L873.78,214.97C870.3,219.48 865.95,222.64 859.07,222.64C849.27,222.64 840.1,215.37 840.1,203.11L840.1,202.95C840.1,190.62 849.35,183.34 859.07,183.34C866.11,183.34 870.45,186.58 873.7,190.45L873.7,188.47C873.7,185.86 875.83,183.73 878.44,183.73C881.05,183.73 883.26,185.86 883.26,188.55L883.26,217.41C883.26,224.45 881.44,229.66 877.96,233.14C874.17,236.93 868.32,238.75 860.8,238.75C854.95,238.75 849.73,237.49 844.67,235.04L844.69,235.04ZM873.87,203.02L873.87,202.86C873.87,196.06 868.26,191.4 861.62,191.4C854.98,191.4 849.76,195.99 849.76,202.86L849.76,203.02C849.76,209.82 855.06,214.48 861.62,214.48C868.18,214.48 873.87,209.82 873.87,203.02Z" style="fill:rgb(90,95,95);fill-rule:nonzero;"/>
    </g>
    <g transform="matrix(1,0,0,1,-224.53,-127.05)">
        <path d="M914.43,226.9C902.33,226.9 893.01,218.13 893.01,205.24L893.01,205.08C893.01,193.14 901.47,183.34 913.41,183.34C926.69,183.34 933.25,194.25 933.25,203.89C933.25,206.58 931.19,208.47 928.74,208.47L902.57,208.47C903.6,215.27 908.42,219.06 914.59,219.06C918.62,219.06 921.78,217.64 924.47,215.42C925.18,214.87 925.81,214.55 926.92,214.55C929.05,214.55 930.71,216.21 930.71,218.42C930.71,219.61 930.16,220.63 929.45,221.35C925.66,224.75 920.91,226.88 914.43,226.88L914.43,226.9ZM923.91,202.15C923.28,195.98 919.64,191.16 913.32,191.16C907.47,191.16 903.36,195.67 902.49,202.15L923.91,202.15Z" style="fill:rgb(90,95,95);fill-rule:nonzero;"/>
    </g>
    <g transform="matrix(1,0,0,1,-224.53,-127.05)">
        <path d="M945.02,214.41L945.02,192.43L943.44,192.43C941.15,192.43 939.33,190.61 939.33,188.32C939.33,186.03 941.15,184.21 943.44,184.21L945.02,184.21L945.02,177.09C945.02,174.48 947.15,172.35 949.84,172.35C952.53,172.35 954.58,174.48 954.58,177.09L954.58,184.21L962.09,184.21C964.38,184.21 966.28,186.03 966.28,188.32C966.28,190.61 964.38,192.43 962.09,192.43L954.58,192.43L954.58,212.91C954.58,216.63 956.48,218.13 959.72,218.13C960.83,218.13 961.77,217.89 962.09,217.89C964.22,217.89 966.12,219.63 966.12,221.84C966.12,223.58 964.93,225 963.59,225.56C961.53,226.27 959.56,226.67 957.03,226.67C949.99,226.67 945.01,223.59 945.01,214.42L945.02,214.41Z" style="fill:rgb(90,95,95);fill-rule:nonzero;"/>
    </g>
    <g transform="matrix(1,0,0,1,-224.53,-127.05)">
        <path d="M973.96,221.76C972.93,221.21 972.14,220.02 972.14,218.44C972.14,216.31 973.8,214.57 976.01,214.57C976.8,214.57 977.51,214.81 978.07,215.12C982.1,217.81 986.29,219.15 990.09,219.15C994.2,219.15 996.57,217.41 996.57,214.64L996.57,214.48C996.57,211.24 992.14,210.13 987.24,208.63C981.07,206.89 974.2,204.36 974.2,196.38L974.2,196.22C974.2,188.31 980.76,183.49 989.06,183.49C993.49,183.49 998.15,184.76 1002.18,186.89C1003.52,187.6 1004.47,188.87 1004.47,190.53C1004.47,192.74 1002.73,194.4 1000.52,194.4C999.73,194.4 999.25,194.24 998.62,193.93C995.22,192.19 991.74,191.08 988.82,191.08C985.1,191.08 982.97,192.82 982.97,195.19L982.97,195.35C982.97,198.43 987.48,199.7 992.38,201.28C998.47,203.18 1005.35,205.94 1005.35,213.45L1005.35,213.61C1005.35,222.39 998.55,226.73 989.85,226.73C984.55,226.73 978.78,225.07 973.96,221.75L973.96,221.76Z" style="fill:rgb(90,95,95);fill-rule:nonzero;"/>
    </g>
    <g transform="matrix(1,0,0,1,-224.53,-127.05)">
        <path d="M1038.63,198.44L1038.63,198.28C1038.63,183.34 1049.46,169.66 1065.98,169.66C1074.28,169.66 1079.74,171.95 1084.87,175.83C1085.34,176.23 1085.66,176.78 1085.66,177.49C1085.66,178.6 1084.71,179.55 1083.6,179.55C1083.28,179.55 1082.81,179.39 1082.34,179C1078.07,175.68 1073.41,173.39 1065.74,173.39C1052.3,173.39 1042.89,184.77 1042.89,198.13L1042.89,198.29C1042.89,212.6 1051.82,223.27 1066.61,223.27C1073.65,223.27 1080.21,220.34 1084.24,216.94L1084.24,201.05L1067.01,201.05C1065.98,201.05 1065.11,200.18 1065.11,199.15C1065.11,198.12 1065.98,197.25 1067.01,197.25L1086.14,197.25C1087.25,197.25 1088.2,198.2 1088.2,199.31L1088.2,217.41C1088.2,218.2 1087.65,219.07 1086.78,219.78C1081.56,223.81 1074.68,226.89 1066.46,226.89C1048.99,226.89 1038.63,214 1038.63,198.43L1038.63,198.44Z" style="fill:rgb(90,95,95);fill-rule:nonzero;"/>
    </g>
    <g transform="matrix(1,0,0,1,-224.53,-127.05)">
        <path d="M1119.2,226.9C1108.61,226.9 1099.44,218.44 1099.44,205.87L1099.44,205.71C1099.44,194.01 1107.66,184.68 1118.57,184.68C1129.48,184.68 1137.07,194.01 1137.07,205.55C1137.07,206.5 1136.12,207.37 1135.17,207.37L1103.55,207.37C1104.26,217.41 1111.46,223.26 1119.36,223.26C1125.13,223.26 1129.16,220.89 1132.4,217.73C1132.72,217.41 1133.11,217.18 1133.66,217.18C1134.69,217.18 1135.56,217.97 1135.56,219C1135.56,219.4 1135.4,219.87 1134.93,220.34C1130.98,224.29 1126.47,226.9 1119.2,226.9ZM1132.87,203.89C1132.32,195.75 1127.65,188.24 1118.4,188.24C1110.42,188.24 1104.25,194.96 1103.54,203.89L1132.87,203.89Z" style="fill:rgb(90,95,95);fill-rule:nonzero;"/>
    </g>
    <g transform="matrix(1,0,0,1,-224.53,-127.05)">
        <path d="M1148.37,187.29C1148.37,186.18 1149.16,185.31 1150.27,185.31C1151.38,185.31 1152.25,186.1 1152.25,187.29L1152.25,193.14C1154.94,188.4 1159.44,184.68 1166.8,184.68C1177,184.68 1182.93,191.64 1182.93,201.28L1182.93,224.28C1182.93,225.47 1182.14,226.26 1181.03,226.26C1179.92,226.26 1179.05,225.47 1179.05,224.28L1179.05,201.99C1179.05,193.69 1174.39,188.24 1166.24,188.24C1158.09,188.24 1152.25,194.25 1152.25,202.63L1152.25,224.29C1152.25,225.48 1151.46,226.27 1150.35,226.27C1149.24,226.27 1148.37,225.48 1148.37,224.29L1148.37,187.29Z" style="fill:rgb(90,95,95);fill-rule:nonzero;"/>
    </g>
    <g transform="matrix(1,0,0,1,-224.53,-127.05)">
        <path d="M1198.97,215.6L1198.97,189.19L1194.62,189.19C1193.67,189.19 1192.8,188.32 1192.8,187.37C1192.8,186.42 1193.67,185.63 1194.62,185.63L1198.97,185.63L1198.97,174.4C1198.97,173.29 1199.76,172.42 1200.87,172.42C1201.98,172.42 1202.85,173.29 1202.85,174.4L1202.85,185.63L1215.5,185.63C1216.45,185.63 1217.32,186.5 1217.32,187.45C1217.32,188.4 1216.45,189.19 1215.5,189.19L1202.85,189.19L1202.85,215.2C1202.85,220.97 1206.25,223.03 1210.91,223.03C1213.68,223.03 1214.94,222.24 1215.5,222.24C1216.37,222.24 1217.24,223.03 1217.24,223.98C1217.24,224.77 1216.77,225.32 1215.97,225.64C1214.39,226.19 1212.57,226.67 1210.28,226.67C1204.03,226.67 1198.97,223.27 1198.97,215.6Z" style="fill:rgb(90,95,95);fill-rule:nonzero;"/>
    </g>
    <g transform="matrix(1,0,0,1,-224.53,-127.05)">
        <path d="M1228.46,187.29C1228.46,186.18 1229.25,185.31 1230.36,185.31C1231.47,185.31 1232.34,186.1 1232.34,187.29L1232.34,197.09C1235.82,189.26 1242.85,185 1248.55,185C1249.74,185 1250.61,185.95 1250.61,187.13C1250.61,188.24 1249.82,189.19 1248.55,189.26C1240.01,190.05 1232.34,196.45 1232.34,209.42L1232.34,224.28C1232.34,225.39 1231.55,226.26 1230.44,226.26C1229.33,226.26 1228.46,225.47 1228.46,224.28L1228.46,187.28L1228.46,187.29Z" style="fill:rgb(90,95,95);fill-rule:nonzero;"/>
    </g>
    <g transform="matrix(1,0,0,1,-224.53,-127.05)">
        <path d="M1255.34,205.95L1255.34,205.79C1255.34,194.49 1264.12,184.68 1276.13,184.68C1288.14,184.68 1296.76,194.32 1296.76,205.63L1296.76,205.79C1296.76,217.09 1287.98,226.9 1275.97,226.9C1263.96,226.9 1255.34,217.26 1255.34,205.95ZM1292.58,205.95L1292.58,205.79C1292.58,196.07 1285.31,188.32 1275.98,188.32C1266.65,188.32 1259.54,196.15 1259.54,205.63L1259.54,205.79C1259.54,215.51 1266.81,223.26 1276.14,223.26C1285.47,223.26 1292.58,215.43 1292.58,205.95Z" style="fill:rgb(90,95,95);fill-rule:nonzero;"/>
    </g>
    <g transform="matrix(1,0,0,1,-224.53,-127.05)">
        <path d="M1308.71,187.29C1308.71,186.1 1309.5,185.31 1310.61,185.31C1311.72,185.31 1312.59,186.1 1312.59,187.29L1312.59,194.64C1316.07,189.34 1321.21,184.68 1329.19,184.68C1338.91,184.68 1348.8,192.51 1348.8,205.63L1348.8,205.79C1348.8,218.91 1338.92,226.9 1329.19,226.9C1321.13,226.9 1315.91,222.32 1312.59,217.26L1312.59,236.94C1312.59,238.13 1311.8,238.92 1310.69,238.92C1309.58,238.92 1308.71,238.13 1308.71,236.94L1308.71,187.29ZM1344.6,205.95L1344.6,205.79C1344.6,195.2 1337.25,188.4 1328.79,188.4C1320.33,188.4 1312.35,195.44 1312.35,205.71L1312.35,205.87C1312.35,216.23 1320.41,223.18 1328.79,223.18C1337.17,223.18 1344.6,216.78 1344.6,205.95Z" style="fill:rgb(90,95,95);fill-rule:nonzero;"/>
    </g>
    <g transform="matrix(1,0,0,1,-224.53,-127.05)">
        <path d="M1356.94,237.57C1356.31,237.33 1355.83,236.78 1355.83,235.91C1355.83,234.88 1356.62,234.09 1357.65,234.09C1358.05,234.09 1358.44,234.25 1358.92,234.41C1360.18,234.88 1361.61,235.2 1364.06,235.2C1368.49,235.2 1371.17,232.27 1373.78,226.27L1374.02,225.72L1355.99,188.48C1355.83,188.09 1355.67,187.69 1355.67,187.29C1355.67,186.18 1356.54,185.31 1357.72,185.31C1358.9,185.31 1359.38,186.02 1359.78,186.89L1375.91,221.68L1389.98,186.74C1390.3,185.95 1390.85,185.32 1391.88,185.32C1392.99,185.32 1393.86,186.19 1393.86,187.3C1393.86,187.7 1393.78,187.93 1393.62,188.33L1377.26,227.38C1373.7,235.84 1369.59,238.84 1363.82,238.84C1361.13,238.84 1359.08,238.37 1356.94,237.58L1356.94,237.57Z" style="fill:rgb(90,95,95);fill-rule:nonzero;"/>
    </g>
    <g transform="matrix(1,0,0,1,-224.53,-127.05)">
        <path d="M441.51,265.55C436.51,270.53 429.97,273.02 423.43,273.02C416.89,273.02 410.27,270.5 405.26,265.47L388.31,248.44L388.31,175.76L441.6,229.29C451.59,239.33 451.55,255.56 441.51,265.55Z" style="fill:rgb(52,137,202);fill-rule:nonzero;"/>
    </g>
    <g transform="matrix(0.705501,0.708709,-0.708709,0.705501,13.7901,-380.77)">
        <path d="M424.44,134.51C438.45,134.51 449.83,145.89 449.83,159.9L449.83,185.29L399.05,185.29L399.05,159.9C399.05,145.89 410.43,134.51 424.44,134.51Z" style="fill:rgb(174,208,234);fill-rule:nonzero;"/>
    </g>
    <g transform="matrix(1,0,0,1,-224.53,-127.05)">
        <path d="M349.21,195.69C347.82,193.12 347.78,190.75 349.04,188.19C345.29,189.62 342.21,188.97 340.03,185.66C338.51,183.35 338.68,180.29 340.43,178.14C342.76,175.27 345.72,174.85 349.29,176.36C348.07,173.8 348.02,171.43 349.33,168.82C347.39,169.65 345.66,170.01 343.87,169.45C342.11,168.9 340.76,167.84 339.87,166.22C338.49,163.72 338.85,160.63 340.76,158.52C342.87,156.18 345.79,155.71 349.4,157.26C348.07,154.68 347.96,152.21 349.45,149.56C345.62,151.26 342.42,150.76 340.08,147.34C338.47,144.99 338.73,141.84 340.51,139.61C342.52,137.1 345.14,136.59 349.36,137.95C349.09,137.29 348.84,136.69 348.66,136.23C350.19,137.75 351.8,139.36 353.3,140.85C352.91,140.7 352.29,140.47 351.49,140.17C352.75,142.61 352.85,144.93 351.39,147.52C353.74,146.29 355.92,146.03 358.28,147C358.1,146.26 357.97,145.71 357.89,145.39C359.63,147.04 361.48,148.81 363.34,150.57C363.28,150.64 363.23,150.72 363.17,150.79C362.79,150.71 362.42,150.62 362.14,150.56L362.14,155.85C363.63,155.73 365.2,155.6 366.79,155.48C366.76,155.15 366.71,154.69 366.67,154.32C369,156.64 371.33,158.98 373.68,161.32C373.3,161.28 372.85,161.23 372.39,161.18L372.39,164.67C373.36,164.57 374.26,164.48 375.21,164.39L375.21,162.68C375.55,162.95 375.79,163.11 375.99,163.31C380.21,167.52 384.43,171.72 388.62,175.96C388.96,176.31 389.22,176.91 389.22,177.39C389.25,201.18 389.25,224.98 389.25,248.77L389.25,249.71C388.83,249.31 388.58,249.08 388.34,248.84C381.75,242.25 375.15,235.68 368.58,229.07C365.15,225.62 361.78,222.1 358.37,218.64C355.52,215.75 352.65,212.88 349.75,210.04C348.91,209.22 348.07,208.5 349.23,207.11C347.84,208.24 347.11,207.43 346.29,206.58C344.15,204.37 341.97,202.19 339.76,200.05C339.22,199.53 339.21,199.12 339.51,198.49C341,195.38 344.65,193.89 347.91,195.11C348.28,195.25 348.64,195.41 349.27,195.68L349.21,195.69ZM351.37,204.93C353.42,203.79 355.54,203.8 357.48,204.33L357.48,198.43C355.46,199.12 353.38,198.88 351.14,197.69C352.54,200.24 352.53,202.53 351.37,204.94L351.37,204.93ZM351.74,166.36C353.79,165.4 355.85,165.37 357.72,165.9L357.72,160.02C355.7,160.7 353.63,160.49 351.41,159.28C352.73,161.74 352.78,163.99 351.75,166.36L351.74,166.36ZM351.53,185.73C353.81,184.58 355.85,184.59 357.94,185.32C357.78,184.26 357.53,183.3 357.52,182.33C357.52,181.33 357.74,180.32 357.88,179.23C355.8,179.86 353.76,179.73 351.47,178.58C352.76,181.08 352.73,183.26 351.54,185.72L351.53,185.73ZM361.88,194.26C363.34,194.13 364.85,193.99 366.28,193.85L366.28,189.8C364.79,189.6 363.24,189.39 361.88,189.2L361.88,194.26ZM366.52,174.67L366.52,170.55C365.01,170.41 363.51,170.28 362.19,170.16L362.19,175.06C363.56,174.94 365.04,174.8 366.52,174.67ZM361.91,208.54L361.91,213.46C363.32,213.33 364.83,213.2 366.28,213.06L366.28,208.94C364.82,208.81 363.34,208.67 361.91,208.54ZM375.01,202.79L375.01,200C374.03,199.9 373.11,199.81 372.16,199.72L372.16,203.08C373.12,202.98 374.02,202.89 375.01,202.79ZM372.14,222.28C373.14,222.17 374.1,222.07 374.99,221.98L374.99,219.2C373.99,219.11 373.07,219.03 372.14,218.94L372.14,222.28ZM372.41,180.52L372.41,183.84C373.38,183.76 374.28,183.68 375.18,183.6L375.18,180.82C374.24,180.72 373.34,180.62 372.41,180.53L372.41,180.52ZM382.5,192.59C383.05,192.54 383.47,192.5 383.93,192.46C383.9,192 383.88,191.65 383.85,191.23C383.39,191.18 382.97,191.14 382.5,191.1L382.5,192.6L382.5,192.59ZM383.83,211.69L383.83,210.3L382.51,210.3L382.51,211.76C382.97,211.74 383.36,211.71 383.83,211.69ZM382.53,229.42L382.53,230.98C383.01,230.94 383.43,230.9 383.84,230.87L383.84,229.52C383.39,229.49 383,229.46 382.53,229.43L382.53,229.42ZM384.06,172.04C383.65,172 383.23,171.96 382.76,171.92L382.76,173.26C383.51,173.22 384.39,173.45 384.06,172.04Z" style="fill:rgb(52,137,202);fill-rule:nonzero;"/>
    </g>
    <g transform="matrix(1,0,0,1,-224.53,-127.05)">
        <path d="M342.61,153.45C342.58,157 339.61,159.91 336.06,159.86C332.51,159.81 329.62,156.83 329.68,153.28C329.74,149.78 332.66,146.92 336.17,146.93C339.72,146.94 342.64,149.9 342.61,153.45Z" style="fill:rgb(52,137,202);fill-rule:nonzero;"/>
    </g>
    <g transform="matrix(1,0,0,1,-224.53,-127.05)">
        <path d="M336.11,179.06C332.56,179.04 329.65,176.08 329.68,172.53C329.72,168.98 332.69,166.08 336.24,166.13C339.74,166.18 342.61,169.09 342.61,172.6C342.61,176.15 339.66,179.08 336.11,179.06Z" style="fill:rgb(52,137,202);fill-rule:nonzero;"/>
    </g>
    <g transform="matrix(1,0,0,1,-224.53,-127.05)">
        <path d="M332.74,162.97C332.76,166.34 329.95,169.17 326.57,169.19C323.2,169.21 320.37,166.4 320.35,163.02C320.33,159.65 323.14,156.82 326.52,156.8C329.89,156.78 332.72,159.59 332.74,162.97Z" style="fill:rgb(52,137,202);fill-rule:nonzero;"/>
    </g>
    <g transform="matrix(1,0,0,1,-224.53,-127.05)">
        <path d="M342.61,134.23C342.59,137.6 339.92,140.43 336.55,140.65C333.21,140.87 330.15,138.36 329.76,135.02C329.72,134.65 329.89,134.15 330.15,133.88C332.01,131.96 333.91,130.06 335.83,128.2C336.1,127.94 336.6,127.77 336.97,127.81C340.16,128.17 342.63,131.01 342.62,134.23L342.61,134.23Z" style="fill:rgb(52,137,202);fill-rule:nonzero;"/>
    </g>
    <g transform="matrix(1,0,0,1,-224.53,-127.05)">
        <path d="M332.74,143.78C332.76,147.1 330.06,149.88 326.71,150C323.52,150.11 320.64,147.56 320.4,144.35C320.37,143.98 320.56,143.48 320.82,143.21C322.51,141.46 324.23,139.74 325.98,138.05C326.25,137.79 326.76,137.63 327.13,137.67C330.28,137.95 332.72,140.64 332.73,143.79L332.74,143.78Z" style="fill:rgb(52,137,202);fill-rule:nonzero;"/>
    </g>
    <g transform="matrix(1,0,0,1,-224.53,-127.05)">
        <path d="M335.97,185.34C339.03,185.37 341.6,187.52 342.24,190.6C342.83,193.47 341.25,196.49 338.55,197.7C337.98,197.96 337.58,197.96 337.1,197.46C334.84,195.14 332.52,192.88 330.27,190.55C330.01,190.28 329.89,189.61 330.03,189.25C330.94,186.91 333.42,185.32 335.98,185.34L335.97,185.34Z" style="fill:rgb(52,137,202);fill-rule:nonzero;"/>
    </g>
    <g transform="matrix(1,0,0,1,-224.53,-127.05)">
        <path d="M322.81,153.34C322.85,156.55 320.35,159.15 317.12,159.26C313.96,159.36 311.28,156.96 311.13,153.81C311.11,153.33 311.34,152.72 311.67,152.37C313.03,150.91 314.44,149.49 315.9,148.13C316.26,147.8 316.87,147.57 317.36,147.59C320.41,147.72 322.77,150.26 322.81,153.34Z" style="fill:rgb(52,137,202);fill-rule:nonzero;"/>
    </g>
    <g transform="matrix(1,0,0,1,-224.53,-127.05)">
        <path d="M332.74,182.15C332.77,184.71 331.11,187.14 328.7,187.95C328.33,188.08 327.67,187.95 327.39,187.68C325.23,185.61 323.11,183.49 321.04,181.33C320.78,181.06 320.67,180.39 320.8,180.01C321.75,177.29 324.66,175.62 327.46,176.1C330.54,176.63 332.71,179.12 332.74,182.15Z" style="fill:rgb(52,137,202);fill-rule:nonzero;"/>
    </g>
    <g transform="matrix(1,0,0,1,-224.53,-127.05)">
        <path d="M316.89,166.7C319.68,166.66 322.21,168.72 322.72,171.42C323.26,174.35 321.7,177.12 318.99,178.14C318.33,178.39 317.91,178.28 317.43,177.77C315.53,175.74 313.57,173.77 311.69,171.72C311.45,171.46 311.36,170.85 311.47,170.5C312.23,168.26 314.48,166.72 316.89,166.69L316.89,166.7Z" style="fill:rgb(52,137,202);fill-rule:nonzero;"/>
    </g>
    <g transform="matrix(1,0,0,1,-224.53,-127.05)">
        <path d="M312.92,163.04C312.91,165.46 311.35,167.64 309.1,168.28C308.77,168.37 308.22,168.26 307.98,168.03C306.11,166.23 304.29,164.37 302.44,162.55C301.94,162.06 302.01,161.71 302.48,161.26C303.6,160.18 304.7,159.07 305.79,157.96C306.67,157.07 307.75,157.38 308.72,157.6C311.24,158.18 312.93,160.45 312.92,163.04Z" style="fill:rgb(52,137,202);fill-rule:nonzero;"/>
    </g>
    <g transform="matrix(1,0,0,1,-224.53,-127.05)">
        <path d="M339.61,127.05C340.8,128.24 342.1,129.54 343.27,130.71C341.79,130.5 340.03,128.77 339.61,127.05Z" style="fill:rgb(52,137,202);fill-rule:nonzero;"/>
    </g>
    <g transform="matrix(1,0,0,1,-224.53,-127.05)">
        <path d="M273.71,249.38C271.32,249.38 269.37,247.44 269.38,245.05C269.38,242.66 271.35,240.72 273.74,240.75C276.08,240.77 277.99,242.68 278.01,245.02C278.03,247.41 276.1,249.38 273.71,249.38Z" style="fill:rgb(52,137,202);fill-rule:nonzero;"/>
    </g>
    <g transform="matrix(1,0,0,1,-224.53,-127.05)">
        <path d="M264.28,231.58C266.46,231.56 268.18,233.24 268.2,235.41C268.22,237.59 266.54,239.31 264.37,239.33C262.19,239.35 260.47,237.67 260.45,235.5C260.43,233.32 262.11,231.6 264.28,231.58Z" style="fill:rgb(52,137,202);fill-rule:nonzero;"/>
    </g>
    <g transform="matrix(1,0,0,1,-224.53,-127.05)">
        <path d="M264.14,250.79C266.31,250.81 267.98,252.53 267.96,254.72C267.94,256.89 266.22,258.56 264.03,258.54C261.86,258.52 260.19,256.8 260.21,254.61C260.23,252.44 261.95,250.77 264.14,250.79Z" style="fill:rgb(52,137,202);fill-rule:nonzero;"/>
    </g>
    <g transform="matrix(1,0,0,1,-224.53,-127.05)">
        <path d="M258.1,225.82C258.12,227.73 256.61,229.24 254.7,229.23C252.84,229.22 251.36,227.75 251.35,225.89C251.33,223.98 252.84,222.47 254.75,222.48C256.61,222.49 258.09,223.96 258.1,225.82Z" style="fill:rgb(52,137,202);fill-rule:nonzero;"/>
    </g>
    <g transform="matrix(1,0,0,1,-224.53,-127.05)">
        <path d="M257.86,245.02C257.88,246.93 256.37,248.44 254.46,248.43C252.6,248.42 251.12,246.95 251.11,245.09C251.09,243.18 252.6,241.67 254.51,241.68C256.37,241.69 257.85,243.16 257.86,245.02Z" style="fill:rgb(52,137,202);fill-rule:nonzero;"/>
    </g>
    <g transform="matrix(1,0,0,1,-224.53,-127.05)">
        <path d="M257.86,264.36C257.82,266.25 256.25,267.71 254.33,267.63C252.49,267.56 251.07,266.03 251.11,264.16C251.15,262.27 252.72,260.81 254.64,260.89C256.48,260.96 257.9,262.49 257.86,264.36Z" style="fill:rgb(52,137,202);fill-rule:nonzero;"/>
    </g>
    <g transform="matrix(1,0,0,1,-224.53,-127.05)">
        <path d="M247.97,235.31C247.91,236.84 246.57,238.11 245.06,238.06C243.49,238.02 242.18,236.6 242.28,235.06C242.38,233.53 243.75,232.29 245.25,232.37C246.78,232.45 248.03,233.8 247.97,235.31Z" style="fill:rgb(52,137,202);fill-rule:nonzero;"/>
    </g>
    <g transform="matrix(1,0,0,1,-224.53,-127.05)">
        <path d="M244.83,257.23C243.3,257.2 242.02,255.85 242.07,254.35C242.12,252.82 243.47,251.55 244.98,251.62C246.47,251.69 247.69,252.97 247.68,254.44C247.67,255.96 246.34,257.26 244.83,257.23Z" style="fill:rgb(52,137,202);fill-rule:nonzero;"/>
    </g>
    <g transform="matrix(1,0,0,1,-224.53,-127.05)">
        <path d="M242.08,273.92C242.32,271.87 243.37,270.81 244.9,270.82C246.3,270.82 247.49,271.9 247.67,273.33C247.82,274.53 247.5,274.81 246.29,274.61C244.91,274.37 243.53,274.16 242.08,273.93L242.08,273.92Z" style="fill:rgb(52,137,202);fill-rule:nonzero;"/>
    </g>
    <g transform="matrix(1,0,0,1,-224.53,-127.05)">
        <path d="M284.46,250.17C282.53,252.08 280.68,253.92 278.81,255.78C278.44,254.2 278.74,252.72 279.92,251.48C281.17,250.16 282.72,249.79 284.46,250.17Z" style="fill:rgb(52,137,202);fill-rule:nonzero;"/>
    </g>
    <g transform="matrix(1,0,0,1,-224.53,-127.05)">
        <path d="M235.31,246.92C234.18,246.94 233.16,245.93 233.18,244.79C233.2,243.7 234.15,242.74 235.25,242.72C236.38,242.7 237.4,243.71 237.38,244.85C237.36,245.94 236.41,246.9 235.31,246.92Z" style="fill:rgb(52,137,202);fill-rule:nonzero;"/>
    </g>
    <g transform="matrix(1,0,0,1,-224.53,-127.05)">
        <path d="M237.38,263.97C237.42,265.1 236.41,266.13 235.28,266.13C234.19,266.13 233.22,265.18 233.18,264.09C233.14,262.96 234.15,261.93 235.28,261.93C236.37,261.93 237.34,262.88 237.38,263.97Z" style="fill:rgb(52,137,202);fill-rule:nonzero;"/>
    </g>
    <g transform="matrix(1,0,0,1,-224.53,-127.05)">
        <path d="M269.49,264.98C268.64,261.87 272.22,259.17 274.4,260.08C272.78,261.69 271.12,263.35 269.49,264.98Z" style="fill:rgb(52,137,202);fill-rule:nonzero;"/>
    </g>
    <g transform="matrix(1,0,0,1,-224.53,-127.05)">
        <path d="M244.29,218.7C245.45,217.52 246.58,216.37 247.75,215.18C248.26,216.18 247.92,217.1 247.22,217.88C246.43,218.78 245.42,219.09 244.29,218.69L244.29,218.7Z" style="fill:rgb(52,137,202);fill-rule:nonzero;"/>
    </g>
    <g transform="matrix(1,0,0,1,-224.53,-127.05)">
        <path d="M227.11,254.16C226.83,255.26 226.36,255.81 225.6,255.61C225.14,255.48 224.52,254.81 224.53,254.4C224.53,253.99 225.23,253.3 225.65,253.28C226.12,253.25 226.62,253.84 227.11,254.17L227.11,254.16Z" style="fill:rgb(52,137,202);fill-rule:nonzero;"/>
    </g>
    <g transform="matrix(1,0,0,1,-224.53,-127.05)">
        <path d="M234.96,227.61C235.84,226.78 236.69,226 237.49,225.24C237.95,226.73 236.81,227.92 234.96,227.61Z" style="fill:rgb(52,137,202);fill-rule:nonzero;"/>
    </g>
    <g transform="matrix(1,0,0,1,-224.53,-127.05)">
        <path d="M264.06,270.3C263,270.92 261.95,271.54 260.84,272.2C261.17,270.86 262.31,270.1 264.06,270.3Z" style="fill:rgb(52,137,202);fill-rule:nonzero;"/>
    </g>
    <g transform="matrix(1,0,0,1,-224.53,-127.05)">
        <path d="M352.45,234.86C352.91,234.68 353.22,234.53 353.54,234.42C355.54,233.73 357.39,233.55 358.9,235.53C359.72,236.6 360.7,237.6 361.78,238.4C363.3,239.54 363.32,240.97 363.01,242.57C362.95,242.87 362.87,243.17 362.8,243.47C362.92,243.52 363,243.58 363.05,243.57C365.13,242.78 366.82,243.04 368.32,244.92C369.6,246.53 371.22,247.88 372.82,249.48C370.74,251.45 368.72,253.36 366.71,255.27C366.1,255.85 365.56,256.51 364.9,257.02C364.36,257.44 363.68,257.69 362.95,258.07C363.25,258.67 362.77,259.24 362.13,259.86C359.97,261.95 357.82,264.04 355.78,266.23C354.95,267.12 354.21,267.29 353.21,266.72C353.02,266.61 352.8,266.56 352.16,266.31C353.87,268.44 352.55,269.49 351.33,270.64C349.59,272.29 347.89,273.98 346.25,275.74C345.58,276.45 344.99,276.49 344.16,276.18C340.68,274.87 338.88,271.06 340.13,267.57C341.38,264.08 345.19,262.26 348.71,263.47C349.04,263.58 349.37,263.72 349.93,263.93C348.78,261.44 348.65,259.11 349.96,256.61C345.93,258.11 342.65,257.46 340.5,253.7C339.16,251.35 339.54,248.31 341.33,246.3C343.68,243.67 346.54,243.3 349.93,244.72C348.78,242.24 348.66,239.9 349.98,237.37C349.47,237.54 349.16,237.63 348.86,237.74C346.12,238.73 343.22,237.98 341.35,235.8C339.58,233.73 339.24,230.7 340.52,228.28C341.82,225.82 344.52,224.38 347.32,224.75C347.83,224.82 348.38,225.11 348.76,225.46C349.83,226.43 350.74,227.57 351.85,228.47C353.37,229.7 353.42,231.23 353.06,232.9C352.93,233.51 352.7,234.09 352.46,234.84L352.45,234.86ZM358.41,253.51L358.41,247.77C356.49,248.39 354.49,248.19 352.31,247.14C353.53,249.57 353.44,251.75 352.36,254.14C354.52,253.05 356.49,252.9 358.42,253.51L358.41,253.51Z" style="fill:rgb(174,208,234);fill-rule:nonzero;"/>
    </g>
    <g transform="matrix(1,0,0,1,-224.53,-127.05)">
        <path d="M343.37,260.25C343.37,263.82 340.48,266.71 336.9,266.72C333.27,266.72 330.37,263.8 330.4,260.16C330.43,256.6 333.34,253.73 336.93,253.75C340.5,253.77 343.38,256.67 343.37,260.25Z" style="fill:rgb(174,208,234);fill-rule:nonzero;"/>
    </g>
    <g transform="matrix(1,0,0,1,-224.53,-127.05)">
        <path d="M343.37,241.04C343.37,244.61 340.48,247.51 336.91,247.52C333.28,247.52 330.38,244.61 330.4,240.97C330.43,237.41 333.34,234.54 336.92,234.55C340.49,234.56 343.37,237.46 343.37,241.04Z" style="fill:rgb(174,208,234);fill-rule:nonzero;"/>
    </g>
    <g transform="matrix(1,0,0,1,-224.53,-127.05)">
        <path d="M336.89,228.32C333.12,228.32 330.19,225.19 330.41,221.39C330.62,217.74 334,214.9 337.66,215.42C338.39,215.52 339.13,215.97 339.72,216.44C340.53,217.08 341.15,217.96 341.95,218.6C343.32,219.69 343.51,221.13 343.31,222.69C342.9,225.91 340.13,228.32 336.88,228.32L336.89,228.32Z" style="fill:rgb(174,208,234);fill-rule:nonzero;"/>
    </g>
    <g transform="matrix(1,0,0,1,-224.53,-127.05)">
        <path d="M327.26,244.41C330.7,244.4 333.53,247.23 333.51,250.67C333.49,254.06 330.7,256.85 327.31,256.86C323.87,256.87 321.04,254.04 321.06,250.6C321.08,247.21 323.87,244.42 327.26,244.41Z" style="fill:rgb(174,208,234);fill-rule:nonzero;"/>
    </g>
    <g transform="matrix(1,0,0,1,-224.53,-127.05)">
        <path d="M327.29,225.21C330.73,225.21 333.55,228.07 333.51,231.5C333.48,234.89 330.67,237.66 327.28,237.66C323.84,237.66 321.02,234.8 321.06,231.37C321.09,227.98 323.9,225.21 327.29,225.21Z" style="fill:rgb(174,208,234);fill-rule:nonzero;"/>
    </g>
    <g transform="matrix(1,0,0,1,-224.53,-127.05)">
        <path d="M333.51,212.27C333.5,215.66 330.7,218.45 327.31,218.47C323.87,218.48 321.04,215.64 321.06,212.21C321.08,208.82 323.89,206.2 327.27,205.97C329.78,205.8 333.97,209.78 333.52,212.28L333.51,212.27Z" style="fill:rgb(174,208,234);fill-rule:nonzero;"/>
    </g>
    <g transform="matrix(1,0,0,1,-224.53,-127.05)">
        <path d="M333.51,269.9C333.48,273.28 330.66,276.1 327.31,276.04C326.82,276.04 326.22,275.79 325.85,275.45C324.42,274.12 323.03,272.74 321.71,271.3C321.35,270.91 321.09,270.27 321.09,269.74C321.07,266.37 323.93,263.6 327.31,263.61C330.74,263.62 333.55,266.47 333.52,269.9L333.51,269.9Z" style="fill:rgb(174,208,234);fill-rule:nonzero;"/>
    </g>
    <g transform="matrix(1,0,0,1,-224.53,-127.05)">
        <path d="M317.91,208.61C314.66,208.61 311.95,205.88 311.95,202.64C311.95,199.39 314.67,196.68 317.92,196.68C321.12,196.68 323.9,199.46 323.89,202.66C323.89,205.91 321.16,208.62 317.91,208.61Z" style="fill:rgb(174,208,234);fill-rule:nonzero;"/>
    </g>
    <g transform="matrix(1,0,0,1,-224.53,-127.05)">
        <path d="M317.74,246.99C314.5,247.03 311.75,244.32 311.73,241.07C311.71,237.83 314.44,235.09 317.68,235.09C320.88,235.09 323.56,237.73 323.63,240.95C323.7,244.18 321,246.94 317.74,246.99Z" style="fill:rgb(174,208,234);fill-rule:nonzero;"/>
    </g>
    <g transform="matrix(1,0,0,1,-224.53,-127.05)">
        <path d="M317.67,215.89C320.91,215.88 323.65,218.61 323.64,221.85C323.64,225.1 320.89,227.82 317.65,227.79C314.44,227.76 311.78,225.1 311.74,221.89C311.7,218.65 314.42,215.91 317.67,215.89Z" style="fill:rgb(174,208,234);fill-rule:nonzero;"/>
    </g>
    <g transform="matrix(1,0,0,1,-224.53,-127.05)">
        <path d="M336.86,272.95C339.82,272.95 342.42,274.89 343.11,277.73C343.22,278.16 343.06,278.84 342.76,279.16C340.8,281.21 338.75,283.17 336.78,285.21C336.16,285.86 335.76,285.72 335.23,285.14C333.78,283.56 332.27,282.04 330.83,280.45C330.57,280.17 330.4,279.69 330.4,279.31C330.35,275.86 333.31,272.97 336.85,272.96L336.86,272.95Z" style="fill:rgb(174,208,234);fill-rule:nonzero;"/>
    </g>
    <g transform="matrix(1,0,0,1,-224.53,-127.05)">
        <path d="M323.63,260.28C323.6,263.49 320.95,266.2 317.74,266.16C317.07,266.16 316.28,265.8 315.75,265.35C314.6,264.37 313.52,263.28 312.53,262.14C312.11,261.65 311.77,260.9 311.76,260.26C311.68,257.02 314.45,254.29 317.69,254.3C320.94,254.31 323.65,257.05 323.62,260.29L323.63,260.28Z" style="fill:rgb(174,208,234);fill-rule:nonzero;"/>
    </g>
    <g transform="matrix(1,0,0,1,-224.53,-127.05)">
        <path d="M313.98,193.08C313.95,196.18 311.4,198.71 308.31,198.7C305.17,198.7 302.58,196.06 302.66,192.94C302.74,189.82 305.31,187.33 308.39,187.38C311.5,187.43 314.01,189.99 313.98,193.08Z" style="fill:rgb(174,208,234);fill-rule:nonzero;"/>
    </g>
    <g transform="matrix(1,0,0,1,-224.53,-127.05)">
        <path d="M313.7,231.39C313.73,234.51 311.26,237.03 308.13,237.06C305.01,237.09 302.49,234.62 302.46,231.49C302.43,228.37 304.9,225.85 308.03,225.82C311.15,225.79 313.67,228.26 313.7,231.39Z" style="fill:rgb(174,208,234);fill-rule:nonzero;"/>
    </g>
    <g transform="matrix(1,0,0,1,-224.53,-127.05)">
        <path d="M313.7,212.29C313.67,215.42 311.15,217.89 308.02,217.86C304.89,217.83 302.42,215.31 302.45,212.18C302.48,209.05 305,206.58 308.13,206.61C311.26,206.64 313.73,209.16 313.7,212.29Z" style="fill:rgb(174,208,234);fill-rule:nonzero;"/>
    </g>
    <g transform="matrix(1,0,0,1,-224.53,-127.05)">
        <path d="M307.9,245.01C311.45,245.04 313.97,247.84 313.67,251.16C313.37,254.46 310.36,256.75 307.08,256.15C306.68,256.08 306.26,255.84 305.95,255.57C305.24,254.93 304.59,254.23 303.91,253.55C302.28,251.92 301.98,250.12 303.07,248.06C304.14,246.05 305.86,245.07 307.89,245.01L307.9,245.01Z" style="fill:rgb(174,208,234);fill-rule:nonzero;"/>
    </g>
    <g transform="matrix(1,0,0,1,-224.53,-127.05)">
        <path d="M304.04,183.55C304,186.51 301.61,188.8 298.61,188.76C295.65,188.72 293.36,186.33 293.4,183.33C293.44,180.37 295.83,178.08 298.83,178.12C301.79,178.16 304.08,180.55 304.04,183.55Z" style="fill:rgb(174,208,234);fill-rule:nonzero;"/>
    </g>
    <g transform="matrix(1,0,0,1,-224.53,-127.05)">
        <path d="M304.04,202.67C304.03,205.65 301.68,207.97 298.69,207.96C295.71,207.95 293.39,205.6 293.4,202.61C293.41,199.63 295.76,197.31 298.75,197.32C301.73,197.33 304.05,199.68 304.04,202.67Z" style="fill:rgb(174,208,234);fill-rule:nonzero;"/>
    </g>
    <g transform="matrix(1,0,0,1,-224.53,-127.05)">
        <path d="M303.78,221.8C303.79,224.78 301.46,227.14 298.49,227.14C295.51,227.14 293.17,224.79 293.18,221.82C293.18,218.9 295.5,216.57 298.41,216.54C301.4,216.51 303.76,218.84 303.78,221.8Z" style="fill:rgb(174,208,234);fill-rule:nonzero;"/>
    </g>
    <g transform="matrix(1,0,0,1,-224.53,-127.05)">
        <path d="M303.78,241.06C303.78,244.03 301.41,246.36 298.42,246.34C295.8,246.32 293.16,243.61 293.18,240.97C293.2,238.05 295.54,235.74 298.46,235.73C301.44,235.73 303.79,238.07 303.78,241.05L303.78,241.06Z" style="fill:rgb(174,208,234);fill-rule:nonzero;"/>
    </g>
    <g transform="matrix(1,0,0,1,-224.53,-127.05)">
        <path d="M294.14,192.8C294.14,195.55 291.84,197.84 289.09,197.82C286.34,197.8 284.06,195.49 284.1,192.74C284.13,190.04 286.38,187.8 289.09,187.78C291.84,187.76 294.14,190.05 294.14,192.8Z" style="fill:rgb(174,208,234);fill-rule:nonzero;"/>
    </g>
    <g transform="matrix(1,0,0,1,-224.53,-127.05)">
        <path d="M294.14,173.59C294.14,176.34 291.85,178.63 289.1,178.62C286.35,178.61 284.07,176.3 284.1,173.55C284.13,170.85 286.38,168.6 289.08,168.58C291.82,168.56 294.13,170.84 294.14,173.59Z" style="fill:rgb(174,208,234);fill-rule:nonzero;"/>
    </g>
    <g transform="matrix(1,0,0,1,-224.53,-127.05)">
        <path d="M288.94,226.2C291.68,226.24 293.96,228.6 293.88,231.32C293.8,234.03 291.5,236.24 288.82,236.2C286.08,236.16 283.8,233.8 283.88,231.08C283.96,228.37 286.26,226.16 288.94,226.2Z" style="fill:rgb(174,208,234);fill-rule:nonzero;"/>
    </g>
    <g transform="matrix(1,0,0,1,-224.53,-127.05)">
        <path d="M293.88,212.03C293.85,214.77 291.5,217.06 288.78,216.99C286.07,216.92 283.85,214.64 283.88,211.95C283.91,209.21 286.26,206.92 288.98,206.99C291.69,207.06 293.91,209.34 293.88,212.03Z" style="fill:rgb(174,208,234);fill-rule:nonzero;"/>
    </g>
    <g transform="matrix(1,0,0,1,-224.53,-127.05)">
        <path d="M284.12,202.38C284.12,204.98 282.11,207 279.51,207C276.91,207 274.9,204.96 274.92,202.36C274.94,199.81 276.93,197.82 279.47,197.8C282.08,197.78 284.11,199.79 284.12,202.38Z" style="fill:rgb(174,208,234);fill-rule:nonzero;"/>
    </g>
    <g transform="matrix(1,0,0,1,-224.53,-127.05)">
        <path d="M283.88,221.64C283.86,224.23 281.82,226.23 279.21,226.2C276.62,226.17 274.64,224.11 274.68,221.5C274.72,218.96 276.74,217 279.29,217C281.89,217 283.9,219.04 283.88,221.64Z" style="fill:rgb(174,208,234);fill-rule:nonzero;"/>
    </g>
    <g transform="matrix(1,0,0,1,-224.53,-127.05)">
        <path d="M284.12,164.06C284.1,166.65 282.04,168.64 279.43,168.6C276.85,168.56 274.87,166.5 274.92,163.88C274.97,161.35 276.99,159.39 279.55,159.4C282.14,159.41 284.15,161.45 284.12,164.06Z" style="fill:rgb(174,208,234);fill-rule:nonzero;"/>
    </g>
    <g transform="matrix(1,0,0,1,-224.53,-127.05)">
        <path d="M284.12,183.25C284.1,185.84 282.05,187.83 279.43,187.8C276.85,187.77 274.87,185.7 274.91,183.08C274.96,180.55 276.98,178.58 279.54,178.59C282.14,178.6 284.14,180.64 284.12,183.25Z" style="fill:rgb(174,208,234);fill-rule:nonzero;"/>
    </g>
    <g transform="matrix(1,0,0,1,-224.53,-127.05)">
        <path d="M273.93,211.99C273.93,214.31 271.95,216.28 269.63,216.25C267.34,216.21 265.44,214.29 265.43,212.01C265.43,209.69 267.41,207.72 269.73,207.75C272.02,207.79 273.92,209.71 273.93,211.99Z" style="fill:rgb(174,208,234);fill-rule:nonzero;"/>
    </g>
    <g transform="matrix(1,0,0,1,-224.53,-127.05)">
        <path d="M274.17,173.54C274.21,175.86 272.24,177.85 269.92,177.84C267.64,177.84 265.72,175.94 265.68,173.65C265.64,171.33 267.61,169.34 269.93,169.35C272.21,169.35 274.13,171.25 274.17,173.54Z" style="fill:rgb(174,208,234);fill-rule:nonzero;"/>
    </g>
    <g transform="matrix(1,0,0,1,-224.53,-127.05)">
        <path d="M269.93,188.55C272.26,188.55 274.22,190.55 274.17,192.86C274.12,195.15 272.2,197.05 269.92,197.04C267.59,197.04 265.63,195.04 265.68,192.73C265.73,190.44 267.65,188.54 269.93,188.55Z" style="fill:rgb(174,208,234);fill-rule:nonzero;"/>
    </g>
    <g transform="matrix(1,0,0,1,-224.53,-127.05)">
        <path d="M269.93,150.15C272.26,150.15 274.22,152.15 274.17,154.46C274.12,156.75 272.2,158.65 269.92,158.64C267.59,158.64 265.63,156.64 265.68,154.33C265.73,152.04 267.65,150.14 269.93,150.15Z" style="fill:rgb(174,208,234);fill-rule:nonzero;"/>
    </g>
    <g transform="matrix(1,0,0,1,-224.53,-127.05)">
        <path d="M260.34,198.58C262.42,198.59 264.15,200.35 264.14,202.42C264.13,204.5 262.37,206.23 260.3,206.22C258.22,206.21 256.49,204.45 256.5,202.38C256.51,200.3 258.27,198.57 260.34,198.58Z" style="fill:rgb(174,208,234);fill-rule:nonzero;"/>
    </g>
    <g transform="matrix(1,0,0,1,-224.53,-127.05)">
        <path d="M264.14,163.99C264.14,166.06 262.4,167.81 260.33,167.81C258.26,167.81 256.51,166.07 256.51,164C256.51,161.93 258.25,160.18 260.32,160.18C262.39,160.18 264.14,161.92 264.14,163.99Z" style="fill:rgb(174,208,234);fill-rule:nonzero;"/>
    </g>
    <g transform="matrix(1,0,0,1,-224.53,-127.05)">
        <path d="M264.14,183.37C264.03,185.45 262.21,187.12 260.15,187.01C258.07,186.9 256.4,185.08 256.51,183.02C256.62,180.94 258.44,179.27 260.5,179.38C262.58,179.49 264.25,181.31 264.14,183.37Z" style="fill:rgb(174,208,234);fill-rule:nonzero;"/>
    </g>
    <g transform="matrix(1,0,0,1,-224.53,-127.05)">
        <path d="M264.14,144.74C264.18,146.81 262.46,148.58 260.38,148.62C258.31,148.66 256.54,146.94 256.5,144.86C256.46,142.79 258.18,141.02 260.26,140.98C262.33,140.94 264.1,142.66 264.14,144.74Z" style="fill:rgb(174,208,234);fill-rule:nonzero;"/>
    </g>
    <g transform="matrix(1,0,0,1,-224.53,-127.05)">
        <path d="M250.74,170.27C252.56,170.27 254.09,171.83 254.06,173.65C254.03,175.47 252.46,176.99 250.65,176.94C248.87,176.89 247.4,175.4 247.39,173.62C247.39,171.8 248.92,170.26 250.74,170.27Z" style="fill:rgb(174,208,234);fill-rule:nonzero;"/>
    </g>
    <g transform="matrix(1,0,0,1,-224.53,-127.05)">
        <path d="M250.74,196.13C248.92,196.13 247.38,194.6 247.39,192.78C247.39,190.96 248.95,189.43 250.77,189.46C252.55,189.49 254.03,190.97 254.06,192.75C254.09,194.56 252.56,196.12 250.74,196.13Z" style="fill:rgb(174,208,234);fill-rule:nonzero;"/>
    </g>
    <g transform="matrix(1,0,0,1,-224.53,-127.05)">
        <path d="M254.06,154.42C254.05,156.24 252.49,157.76 250.67,157.73C248.85,157.7 247.34,156.12 247.39,154.31C247.44,152.53 248.94,151.06 250.72,151.06C252.54,151.06 254.07,152.6 254.06,154.42Z" style="fill:rgb(174,208,234);fill-rule:nonzero;"/>
    </g>
    <g transform="matrix(1,0,0,1,-224.53,-127.05)">
        <path d="M243.86,183.18C243.87,184.72 242.68,185.93 241.15,185.94C239.61,185.95 238.4,184.76 238.39,183.23C238.38,181.69 239.57,180.48 241.1,180.47C242.64,180.46 243.85,181.65 243.86,183.18Z" style="fill:rgb(174,208,234);fill-rule:nonzero;"/>
    </g>
    <g transform="matrix(1,0,0,1,-224.53,-127.05)">
        <path d="M241.15,147.53C239.61,147.54 238.4,146.35 238.39,144.82C238.38,143.28 239.57,142.07 241.1,142.06C242.64,142.05 243.85,143.24 243.86,144.77C243.87,146.31 242.68,147.52 241.15,147.53Z" style="fill:rgb(174,208,234);fill-rule:nonzero;"/>
    </g>
    <g transform="matrix(1,0,0,1,-224.53,-127.05)">
        <path d="M243.86,164.06C243.83,165.59 242.61,166.77 241.07,166.74C239.54,166.71 238.36,165.49 238.39,163.95C238.42,162.42 239.64,161.24 241.18,161.27C242.71,161.3 243.89,162.52 243.86,164.06Z" style="fill:rgb(174,208,234);fill-rule:nonzero;"/>
    </g>
    <g transform="matrix(1,0,0,1,-224.53,-127.05)">
        <path d="M231.51,175.74C230.36,175.74 229.39,174.76 229.38,173.61C229.37,172.41 230.4,171.4 231.6,171.45C232.75,171.49 233.7,172.49 233.68,173.64C233.66,174.79 232.67,175.75 231.52,175.74L231.51,175.74Z" style="fill:rgb(174,208,234);fill-rule:nonzero;"/>
    </g>
    <g transform="matrix(1,0,0,1,-224.53,-127.05)">
        <path d="M231.53,156.5C230.39,156.5 229.39,155.48 229.43,154.35C229.46,153.26 230.44,152.31 231.53,152.3C232.67,152.3 233.67,153.32 233.63,154.45C233.6,155.54 232.62,156.49 231.53,156.49L231.53,156.5Z" style="fill:rgb(174,208,234);fill-rule:nonzero;"/>
    </g>
    <g transform="matrix(1,0,0,1,-224.53,-127.05)">
        <path d="M253.01,137.45C251.62,138.86 249.95,138.88 248.39,137.45L253.01,137.45Z" style="fill:rgb(174,208,234);fill-rule:nonzero;"/>
    </g>
</svg>
